<svg xmlns="http://www.w3.org/2000/svg" width="136.93" height="92.632" viewBox="0 0 136.93 92.632">
  <g id="Fineax_Fav_Icon" data-name="Fineax Fav Icon" transform="translate(0.006)">
    <g id="Group_3" data-name="Group 3" transform="translate(-0.006)">
      <g id="Group_2" data-name="Group 2" transform="translate(0)">
        <path id="Path_1" data-name="Path 1" d="M232.844,83.342a11.553,11.553,0,0,0-10.333,5.26,10.816,10.816,0,0,1-9.128,4.7H203.79a10.816,10.816,0,0,1-9.128-4.7,11.556,11.556,0,0,0-10.337-5.26,11.718,11.718,0,0,0-10.939,11.334,11.567,11.567,0,0,0,20.524,7.555,10.092,10.092,0,0,1,7.847-3.515h13.66a10.08,10.08,0,0,1,7.847,3.515,11.564,11.564,0,0,0,20.52-7.555A11.719,11.719,0,0,0,232.84,83.342Zm-47.877,17.727a6.166,6.166,0,1,1,6.166-6.166A6.173,6.173,0,0,1,184.966,101.069Zm47.244,0a6.166,6.166,0,1,1,6.166-6.166A6.173,6.173,0,0,1,232.211,101.069Z" transform="translate(-106.855 -51.353)" fill="#fff"/>
        <path id="Path_2" data-name="Path 2" d="M32.779,100.831a2.708,2.708,0,0,0,2.671-3.162,2.8,2.8,0,0,0-2.812-2.252H29.518a9.9,9.9,0,0,1-8.242-4.7,11.556,11.556,0,0,0-10.337-5.26A11.725,11.725,0,0,0,0,96.787a11.564,11.564,0,0,0,20.52,7.555,9.127,9.127,0,0,1,7.018-3.515h5.237Zm-21.2,2.348a6.166,6.166,0,1,1,6.166-6.166A6.173,6.173,0,0,1,11.576,103.179Z" transform="translate(0.006 -52.654)" fill="#fff"/>
        <path id="Path_3" data-name="Path 3" d="M133.781,44.841a24.8,24.8,0,0,1,15.363,5.383,3.61,3.61,0,1,0,4.489-5.656A31.868,31.868,0,1,0,157.613,90.7a3.609,3.609,0,0,0-5.4-4.792,24.667,24.667,0,1,1-18.437-41.063Z" transform="translate(-62.799 -23.185)" fill="#fff"/>
        <path id="Path_4" data-name="Path 4" d="M154.767,137.182a3.619,3.619,0,0,0-4.359,2.659,39.1,39.1,0,0,1-76.048-.276,3.608,3.608,0,0,0-7.025,1.646,46.313,46.313,0,0,0,90.092.326,3.607,3.607,0,0,0-2.659-4.355Z" transform="translate(-41.437 -84.297)" fill="#fff"/>
        <path id="Path_5" data-name="Path 5" d="M72.005,36.823a3.61,3.61,0,0,0,4.531-2.348,39.109,39.109,0,0,1,74.141-1.189c.038.13.077.257.119.388a3.611,3.611,0,0,0,6.814-2.394c-.038-.13-.077-.261-.127-.4a46.329,46.329,0,0,0-87.828,1.412A3.61,3.61,0,0,0,72.005,36.823Z" transform="translate(-42.823)" fill="#fff"/>
      </g>
    </g>
  </g>
</svg>
